<svg width="36" height="36" viewBox="0 0 36 36" fill="none" xmlns="http://www.w3.org/2000/svg">
<path d="M23.625 14.625C23.625 13.5125 23.2951 12.4249 22.677 11.4999C22.0589 10.5749 21.1804 9.8539 20.1526 9.42816C19.1248 9.00241 17.9938 8.89102 16.9026 9.10806C15.8115 9.3251 14.8092 9.86083 14.0225 10.6475C13.2359 11.4342 12.7001 12.4365 12.4831 13.5276C12.266 14.6187 12.3774 15.7497 12.8032 16.7776C13.2289 17.8054 13.9499 18.6839 14.8749 19.302C15.7999 19.9201 16.8875 20.25 18 20.25C19.4918 20.25 20.9226 19.6573 21.9775 18.6025C23.0324 17.5476 23.625 16.1168 23.625 14.625ZM14.625 14.625C14.625 13.9575 14.8229 13.3049 15.1938 12.7499C15.5646 12.1949 16.0917 11.7623 16.7084 11.5069C17.3251 11.2514 18.0037 11.1846 18.6584 11.3148C19.3131 11.4451 19.9145 11.7665 20.3865 12.2385C20.8585 12.7105 21.1799 13.3119 21.3102 13.9666C21.4404 14.6212 21.3735 15.2998 21.1181 15.9165C20.8626 16.5332 20.4301 17.0603 19.875 17.4312C19.32 17.802 18.6675 18 18 18C17.1049 18 16.2464 17.6444 15.6135 17.0115C14.9806 16.3785 14.625 15.5201 14.625 14.625ZM31.5 28.125H19.125V25.8187C21.9967 25.5301 24.6477 24.1488 26.5296 21.9606C28.4115 19.7723 29.3804 16.9445 29.2359 14.0619C29.0914 11.1794 27.8446 8.46258 25.7533 6.47348C23.662 4.48438 20.8862 3.37512 18 3.37512C15.1138 3.37512 12.338 4.48438 10.2467 6.47348C8.15543 8.46258 6.9086 11.1794 6.76411 14.0619C6.61962 16.9445 7.58852 19.7723 9.47043 21.9606C11.3523 24.1488 14.0033 25.5301 16.875 25.8187V28.125H4.5C4.20163 28.125 3.91548 28.2435 3.7045 28.4545C3.49353 28.6655 3.375 28.9516 3.375 29.25C3.375 29.5483 3.49353 29.8345 3.7045 30.0455C3.91548 30.2565 4.20163 30.375 4.5 30.375H31.5C31.7984 30.375 32.0845 30.2565 32.2955 30.0455C32.5065 29.8345 32.625 29.5483 32.625 29.25C32.625 28.9516 32.5065 28.6655 32.2955 28.4545C32.0845 28.2435 31.7984 28.125 31.5 28.125ZM9 14.625C9 12.8449 9.52784 11.1049 10.5168 9.62485C11.5057 8.14481 12.9113 6.99125 14.5558 6.31007C16.2004 5.62888 18.01 5.45065 19.7558 5.79791C21.5016 6.14518 23.1053 7.00235 24.364 8.26102C25.6226 9.51969 26.4798 11.1233 26.8271 12.8692C27.1743 14.615 26.9961 16.4246 26.3149 18.0691C25.6337 19.7137 24.4802 21.1193 23.0001 22.1082C21.5201 23.0971 19.78 23.625 18 23.625C15.6139 23.6224 13.3262 22.6733 11.6389 20.9861C9.95165 19.2988 9.00261 17.0111 9 14.625Z" fill="#1ABC9C"/>
</svg>
