<svg width="40" height="40" viewBox="0 0 40 40" fill="none" xmlns="http://www.w3.org/2000/svg">
<path d="M20.625 3.75C16.4824 3.75455 12.5108 5.40221 9.58148 8.33148C6.65221 11.2608 5.00455 15.2324 5 19.375V32.5C5 33.163 5.26339 33.7989 5.73223 34.2678C6.20107 34.7366 6.83696 35 7.5 35H20.625C24.769 35 28.7433 33.3538 31.6735 30.4235C34.6038 27.4933 36.25 23.519 36.25 19.375C36.25 15.231 34.6038 11.2567 31.6735 8.32646C28.7433 5.3962 24.769 3.75 20.625 3.75ZM20.625 32.5H7.5V19.375C7.5 16.7791 8.26977 14.2415 9.71196 12.0831C11.1542 9.92475 13.204 8.24248 15.6023 7.24908C18.0006 6.25568 20.6396 5.99576 23.1856 6.50219C25.7316 7.00862 28.0702 8.25866 29.9058 10.0942C31.7413 11.9298 32.9914 14.2684 33.4978 16.8144C34.0042 19.3604 33.7443 21.9994 32.7509 24.3977C31.7575 26.796 30.0753 28.8458 27.9169 30.288C25.7585 31.7302 23.2209 32.5 20.625 32.5Z" fill="#1ABC9C"/>
</svg>
