<svg width="18" height="18" viewBox="0 0 18 18" fill="none" xmlns="http://www.w3.org/2000/svg">
<g clip-path="url(#clip0_2197_15065)">
<path d="M16.473 8.07538L13.3089 10.8056L14.2729 14.8887C14.3261 15.1103 14.3124 15.3428 14.2335 15.5566C14.1547 15.7705 14.0142 15.9562 13.8299 16.0903C13.6456 16.2244 13.4256 16.3008 13.1979 16.3099C12.9701 16.3191 12.7447 16.2605 12.5502 16.1416L8.99947 13.9563L5.44658 16.1416C5.25211 16.2598 5.02703 16.3178 4.79966 16.3084C4.57229 16.2989 4.35281 16.2223 4.16886 16.0884C3.98491 15.9544 3.8447 15.769 3.7659 15.5555C3.6871 15.342 3.67323 15.11 3.72603 14.8887L4.69353 10.8056L1.52947 8.07538C1.35741 7.92668 1.23298 7.73058 1.17171 7.51158C1.11043 7.29258 1.11504 7.06038 1.18495 6.84398C1.25486 6.62758 1.38697 6.43657 1.56479 6.29481C1.7426 6.15304 1.95824 6.06681 2.18478 6.04687L6.33322 5.71218L7.93353 1.83937C8.02015 1.6283 8.16758 1.44776 8.35707 1.3207C8.54656 1.19364 8.76956 1.12579 8.99771 1.12579C9.22586 1.12579 9.44886 1.19364 9.63835 1.3207C9.82784 1.44776 9.97527 1.6283 10.0619 1.83937L11.6615 5.71218L15.8099 6.04687C16.0369 6.06606 16.2532 6.15182 16.4317 6.29339C16.6101 6.43496 16.7428 6.62604 16.8132 6.8427C16.8835 7.05937 16.8884 7.29197 16.8271 7.51137C16.7658 7.73077 16.6412 7.92721 16.4688 8.07609L16.473 8.07538Z" fill="#F1C40F"/>
</g>
<defs>
<clipPath id="clip0_2197_15065">
<rect width="18" height="18" fill="white"/>
</clipPath>
</defs>
</svg>
